# xmcd
# 
# Track frame offsets:
#     150
#     18568
#     40985
#     58330
#     72875
#     91670
#     107345
#     124698
#     142823
#     164925
#     186588
#     206483
#     223628
#     241045
#     259578
#     279395
#     309716
# 
# Disc length: 4440
# 
# Revision: 4
# Processed by: cddbd v1.5.2PL0 Copyright (c) Steve Scherf et al.
# Submitted via: fre:ac v1.0.17
# 
DISCID=f8115611
DTITLE=蔡琴 - 2004蔡琴精選
DYEAR=2004
DGENRE=Pop
TTITLE0=讀你
TTITLE1=最後一夜
TTITLE2=我的思念
TTITLE3=再愛我一次
TTITLE4=妳的眼神
TTITLE5=怎麼能
TTITLE6=出塞曲
TTITLE7=雪歌
TTITLE8=動情以後
TTITLE9=愛斷情傷
TTITLE10=思慕的人
TTITLE11=舊情綿綿
TTITLE12=難忘鳳凰橋
TTITLE13=可憐戀花再會啦
TTITLE14=癡情一世人
TTITLE15=洛神
TTITLE16=123
EXTD=
EXTT0=
EXTT1=
EXTT2=
EXTT3=
EXTT4=
EXTT5=
EXTT6=
EXTT7=
EXTT8=
EXTT9=
EXTT10=
EXTT11=
EXTT12=
EXTT13=
EXTT14=
EXTT15=
EXTT16=
PLAYORDER=
